REM DIRINDEX 1\2,1\3
REM DIRNAME cjc143,folder01,folder02
TITLE ""
FILE "2000 phrasesTrack50.mp3" MP3
  TRACK 01 AUDIO
    TITLE "2:cjc143_1978"
    INDEX 01 00:00:00
  TRACK 02 AUDIO
    TITLE "0:"
    INDEX 01 00:00:66
  TRACK 03 AUDIO
    TITLE "2:cjc143_1979"
    INDEX 01 00:01:34
  TRACK 04 AUDIO
    TITLE "0:"
    INDEX 01 00:02:59
  TRACK 05 AUDIO
    TITLE "2:cjc143_1980"
    INDEX 01 00:02:65
  TRACK 06 AUDIO
    TITLE "0:"
    INDEX 01 00:04:01
  TRACK 07 AUDIO
    TITLE "2:cjc143_1981"
    INDEX 01 00:04:13
  TRACK 08 AUDIO
    TITLE "0:"
    INDEX 01 00:05:40
  TRACK 09 AUDIO
    TITLE "2:cjc143_1982"
    INDEX 01 00:05:48
  TRACK 10 AUDIO
    TITLE "0:"
    INDEX 01 00:07:19
  TRACK 11 AUDIO
    TITLE "2:cjc143_1983"
    INDEX 01 00:07:25
  TRACK 12 AUDIO
    TITLE "0:"
    INDEX 01 00:08:46
  TRACK 13 AUDIO
    TITLE "2:cjc143_1984"
    INDEX 01 00:08:58
  TRACK 14 AUDIO
    TITLE "0:"
    INDEX 01 00:10:12
  TRACK 15 AUDIO
    TITLE "2:cjc143_1985"
    INDEX 01 00:10:23
  TRACK 16 AUDIO
    TITLE "0:"
    INDEX 01 00:11:52
  TRACK 17 AUDIO
    TITLE "2:cjc143_1986"
    INDEX 01 00:11:60
  TRACK 18 AUDIO
    TITLE "0:"
    INDEX 01 00:13:32
  TRACK 19 AUDIO
    TITLE "2:cjc143_1987"
    INDEX 01 00:13:41
  TRACK 20 AUDIO
    TITLE "0:"
    INDEX 01 00:14:72
  TRACK 21 AUDIO
    TITLE "2:cjc143_1988"
    INDEX 01 00:15:15
  TRACK 22 AUDIO
    TITLE "0:"
    INDEX 01 00:16:49
  TRACK 23 AUDIO
    TITLE "2:cjc143_1989"
    INDEX 01 00:16:55
  TRACK 24 AUDIO
    TITLE "0:"
    INDEX 01 00:18:27
  TRACK 25 AUDIO
    TITLE "2:cjc143_1990"
    INDEX 01 00:18:33
  TRACK 26 AUDIO
    TITLE "0:"
    INDEX 01 00:20:06
  TRACK 27 AUDIO
    TITLE "2:cjc143_1991"
    INDEX 01 00:20:16
  TRACK 28 AUDIO
    TITLE "0:"
    INDEX 01 00:21:33
  TRACK 29 AUDIO
    TITLE "2:cjc143_1992"
    INDEX 01 00:21:41
  TRACK 30 AUDIO
    TITLE "0:"
    INDEX 01 00:22:64
  TRACK 31 AUDIO
    TITLE "2:cjc143_1993"
    INDEX 01 00:23:32
  TRACK 32 AUDIO
    TITLE "0:"
    INDEX 01 00:26:60
  TRACK 33 AUDIO
    TITLE "2:cjc143_1994"
    INDEX 01 00:27:00
  TRACK 34 AUDIO
    TITLE "0:"
    INDEX 01 00:28:27
  TRACK 35 AUDIO
    TITLE "2:cjc143_1995"
    INDEX 01 00:28:37
  TRACK 36 AUDIO
    TITLE "0:"
    INDEX 01 00:29:70
  TRACK 37 AUDIO
    TITLE "2:cjc143_1996"
    INDEX 01 00:30:20
  TRACK 38 AUDIO
    TITLE "0:"
    INDEX 01 00:31:51
  TRACK 39 AUDIO
    TITLE "2:cjc143_1997"
    INDEX 01 00:31:59
  TRACK 40 AUDIO
    TITLE "0:"
    INDEX 01 00:33:21
  TRACK 41 AUDIO
    TITLE "2:cjc143_1998"
    INDEX 01 00:33:28
  TRACK 42 AUDIO
    TITLE "0:"
    INDEX 01 00:34:59
  TRACK 43 AUDIO
    TITLE "2:cjc143_1999"
    INDEX 01 00:34:71
  TRACK 44 AUDIO
    TITLE "0:"
    INDEX 01 00:36:66
  TRACK 45 AUDIO
    TITLE "2:cjc143_2000"
    INDEX 01 00:37:34
  TRACK 46 AUDIO
    TITLE "0:"
    INDEX 01 00:39:13
  TRACK 47 AUDIO
    TITLE "2:cjc143_2001"
    INDEX 01 00:39:17
  TRACK 48 AUDIO
    TITLE "0:"
    INDEX 01 00:41:20
  TRACK 49 AUDIO
    TITLE "2:cjc143_2002"
    INDEX 01 00:41:32
  TRACK 50 AUDIO
    TITLE "0:"
    INDEX 01 00:42:59
  TRACK 51 AUDIO
    TITLE "2:cjc143_2003"
    INDEX 01 00:42:74
  TRACK 52 AUDIO
    TITLE "0:"
    INDEX 01 00:44:20
  TRACK 53 AUDIO
    TITLE "2:cjc143_2004"
    INDEX 01 00:44:28
  TRACK 54 AUDIO
    TITLE "0:"
    INDEX 01 00:45:59
  TRACK 55 AUDIO
    TITLE "2:cjc143_2005"
    INDEX 01 00:45:69
  TRACK 56 AUDIO
    TITLE "0:"
    INDEX 01 00:47:32
  TRACK 57 AUDIO
    TITLE "2:cjc143_2006"
    INDEX 01 00:47:52
  TRACK 58 AUDIO
    TITLE "0:"
    INDEX 01 00:49:06
  TRACK 59 AUDIO
    TITLE "2:cjc143_2007"
    INDEX 01 00:49:12
  TRACK 60 AUDIO
    TITLE "0:"
    INDEX 01 00:50:70
  TRACK 61 AUDIO
    TITLE "2:cjc143_2008"
    INDEX 01 00:51:15
  TRACK 62 AUDIO
    TITLE "0:"
    INDEX 01 00:52:71
  TRACK 63 AUDIO
    TITLE "2:cjc143_2009"
    INDEX 01 00:53:08
  TRACK 64 AUDIO
    TITLE "0:"
    INDEX 01 00:54:34
  TRACK 65 AUDIO
    TITLE "2:cjc143_2010"
    INDEX 01 00:54:48
  TRACK 66 AUDIO
    TITLE "0:"
    INDEX 01 00:56:10
  TRACK 67 AUDIO
    TITLE "2:cjc143_2011"
    INDEX 01 00:56:20
  TRACK 68 AUDIO
    TITLE "0:"
    INDEX 01 00:57:62
  TRACK 69 AUDIO
    TITLE "2:cjc143_2012"
    INDEX 01 00:57:74
  TRACK 70 AUDIO
    TITLE "0:"
    INDEX 01 00:59:30
  TRACK 71 AUDIO
    TITLE "2:cjc143_2013"
    INDEX 01 00:59:43
  TRACK 72 AUDIO
    TITLE "0:"
    INDEX 01 01:01:19
  TRACK 73 AUDIO
    TITLE "2:cjc143_2014"
    INDEX 01 01:01:29
  TRACK 74 AUDIO
    TITLE "0:"
    INDEX 01 01:03:08
  TRACK 75 AUDIO
    TITLE "2:cjc143_2015"
    INDEX 01 01:03:61
  TRACK 76 AUDIO
    TITLE "0:"
    INDEX 01 01:05:62
  TRACK 77 AUDIO
    TITLE "2:cjc143_2016"
    INDEX 01 01:06:02
  TRACK 78 AUDIO
    TITLE "0:"
    INDEX 01 01:08:07
  TRACK 79 AUDIO
    TITLE "2:cjc143_2017"
    INDEX 01 01:08:21
  TRACK 80 AUDIO
    TITLE "0:"
    INDEX 01 01:10:41
